<?xml version="1.0" encoding="UTF-8" standalone="no"?>
<svg
   xmlns="http://www.w3.org/2000/svg"
   width="21"
   height="19"
   viewBox="0 0 21 19"
   fill="none"
   version="1.1">
  <path
     d="m 19.115924,9.3762964 c 2.14,-2.13989 2.14,-5.61458 0,-7.7333 -2.14,-2.13989505 -5.6148,-2.13989505 -7.7548,0 l -1.038201,1.05936 -1.0382392,-1.03817 c -2.13999,-2.16108505 -5.61484,-2.16108505 -7.7336499,-0.02119 -1.03821905,1.03817 -1.58911005,2.41534 -1.58911005,3.87725 0,1.46191 0.572079,2.83907 1.58911005,3.87724 L 10.322923,18.168976 Z M 1.3179639,5.5202464 c 0,-1.10173 0.4237599,-2.11871 1.2077199,-2.88145 0.80515,-0.80511 1.84336,-1.20767 2.88158,-1.20767 1.03822,0 2.07644,0.40256 2.88158,1.20767 l 2.0340792,2.01278 2.034001,-2.03397 c 1.5891,-1.589032 4.1953,-1.589032 5.7632,0 0.7628,0.76274 1.2077,1.77972 1.2077,2.88145 0,1.10173 -0.4237,2.11871 -1.2077,2.88145 L 10.322923,16.198576 2.5256838,8.4016964 c -0.76277,-0.78393 -1.2077199,-1.80091 -1.2077199,-2.88145 z"
     fill="#000000"
     id="outer"
     style="fill:#000" />
  <path
     class='elements__like-icon'
     style="fill-opacity:1;stroke:none;"
     d="M 5.9395189,12.513768 C 3.5794739,10.099129 1.5515602,7.9908607 1.4330441,7.8287268 1.1680705,7.4662338 0.80320848,6.7124397 0.69327632,6.3003877 0.41456512,5.2557116 0.5187709,4.1875153 0.99608663,3.1963269 1.7037362,1.7268303 3.1347152,0.7559837 4.731357,0.6621355 5.7046184,0.60492873 6.7657466,0.94169271 7.5728773,1.563932 c 0.1020142,0.078646 0.752768,0.7087726 1.446119,1.4002819 l 1.2606377,1.2572899 1.171219,-1.199661 c 0.644169,-0.6598134 1.282506,-1.2902102 1.418525,-1.4008816 1.259181,-1.02452819 2.978826,-1.25340224 4.476069,-0.5957372 1.204812,0.5292137 2.167879,1.6873613 2.517146,3.0270258 0.108698,0.4169278 0.147705,1.3147042 0.07677,1.7670502 -0.103889,0.6625632 -0.361072,1.3158858 -0.732983,1.8620322 -0.115814,0.1700709 -1.842528,1.9682047 -4.559618,4.7482088 -2.405267,2.460964 -4.382898,4.474479 -4.394736,4.474479 -0.01183,0 -1.9524687,-1.975614 -4.3125135,-4.390252 z"
     id="inner" />
</svg>
